<?xml version="1.0" encoding="UTF-8"?>
<mxfile host="app.diagrams.net" modified="2025-02-20T15:50:57Z" agent="Mozilla/5.0" version="21.1.1" type="device">
  <diagram id="fstore-architecture" name="FStore Architecture">
    <mxGraphModel dx="1422" dy="798" grid="1" gridSize="10" guides="1" tooltips="1" connect="1" arrows="1" fold="1" page="1" pageScale="1" pageWidth="1169" pageHeight="827" math="0" shadow="0">
      <root>
        <mxCell id="0" />
        <mxCell id="1" parent="0" />
        
        <!-- Users -->
        <mxCell id="2" value="Data Scientists" style="shape=umlActor;verticalLabelPosition=bottom;verticalAlign=top;html=1;" vertex="1" parent="1">
          <mxGeometry x="60" y="200" width="30" height="60" as="geometry" />
        </mxCell>
        <mxCell id="3" value="ML Engineers" style="shape=umlActor;verticalLabelPosition=bottom;verticalAlign=top;html=1;" vertex="1" parent="1">
          <mxGeometry x="60" y="320" width="30" height="60" as="geometry" />
        </mxCell>
        
        <!-- Frontend -->
        <mxCell id="4" value="Web UI&#xa;(React + Material-UI)" style="rounded=1;whiteSpace=wrap;html=1;fillColor=#dae8fc;strokeColor=#6c8ebf;" vertex="1" parent="1">
          <mxGeometry x="160" y="240" width="120" height="60" as="geometry" />
        </mxCell>
        
        <!-- Backend -->
        <mxCell id="5" value="Backend API&#xa;(FastAPI)" style="rounded=1;whiteSpace=wrap;html=1;fillColor=#d5e8d4;strokeColor=#82b366;" vertex="1" parent="1">
          <mxGeometry x="360" y="240" width="120" height="60" as="geometry" />
        </mxCell>
        
        <!-- Processing -->
        <mxCell id="6" value="Feature Processing&#xa;(Apache Spark)" style="rounded=1;whiteSpace=wrap;html=1;fillColor=#ffe6cc;strokeColor=#d79b00;" vertex="1" parent="1">
          <mxGeometry x="560" y="160" width="120" height="60" as="geometry" />
        </mxCell>
        <mxCell id="7" value="Stream Processing&#xa;(Kafka)" style="rounded=1;whiteSpace=wrap;html=1;fillColor=#ffe6cc;strokeColor=#d79b00;" vertex="1" parent="1">
          <mxGeometry x="560" y="320" width="120" height="60" as="geometry" />
        </mxCell>
        
        <!-- Storage -->
        <mxCell id="8" value="Online Store&#xa;(Redis)" style="shape=cylinder3;whiteSpace=wrap;html=1;boundedLbl=1;backgroundOutline=1;size=15;fillColor=#e1d5e7;strokeColor=#9673a6;" vertex="1" parent="1">
          <mxGeometry x="760" y="140" width="100" height="80" as="geometry" />
        </mxCell>
        <mxCell id="9" value="Offline Store&#xa;(PostgreSQL)" style="shape=cylinder3;whiteSpace=wrap;html=1;boundedLbl=1;backgroundOutline=1;size=15;fillColor=#e1d5e7;strokeColor=#9673a6;" vertex="1" parent="1">
          <mxGeometry x="760" y="240" width="100" height="80" as="geometry" />
        </mxCell>
        <mxCell id="10" value="Metadata Store&#xa;(MongoDB)" style="shape=cylinder3;whiteSpace=wrap;html=1;boundedLbl=1;backgroundOutline=1;size=15;fillColor=#e1d5e7;strokeColor=#9673a6;" vertex="1" parent="1">
          <mxGeometry x="760" y="340" width="100" height="80" as="geometry" />
        </mxCell>
        
        <!-- Data Sources -->
        <mxCell id="11" value="Batch Data&#xa;Sources" style="shape=document;whiteSpace=wrap;html=1;boundedLbl=1;fillColor=#f5f5f5;strokeColor=#666666;fontColor=#333333;" vertex="1" parent="1">
          <mxGeometry x="360" y="40" width="120" height="80" as="geometry" />
        </mxCell>
        <mxCell id="12" value="Streaming Data&#xa;Sources" style="shape=document;whiteSpace=wrap;html=1;boundedLbl=1;fillColor=#f5f5f5;strokeColor=#666666;fontColor=#333333;" vertex="1" parent="1">
          <mxGeometry x="360" y="440" width="120" height="80" as="geometry" />
        </mxCell>
        
        <!-- Monitoring -->
        <mxCell id="13" value="Monitoring &amp; Analytics" style="rounded=1;whiteSpace=wrap;html=1;fillColor=#fff2cc;strokeColor=#d6b656;" vertex="1" parent="1">
          <mxGeometry x="560" y="440" width="120" height="60" as="geometry" />
        </mxCell>
        
        <!-- Connections -->
        <mxCell id="14" value="" style="endArrow=classic;html=1;exitX=1;exitY=0.5;entryX=0;exitY=0.5;" edge="1" parent="1" source="2" target="4">
          <mxGeometry width="50" height="50" relative="1" as="geometry" />
        </mxCell>
        <mxCell id="15" value="" style="endArrow=classic;html=1;exitX=1;exitY=0.5;entryX=0;exitY=0.5;" edge="1" parent="1" source="3" target="4">
          <mxGeometry width="50" height="50" relative="1" as="geometry" />
        </mxCell>
        <mxCell id="16" value="" style="endArrow=classic;html=1;exitX=1;exitY=0.5;entryX=0;exitY=0.5;" edge="1" parent="1" source="4" target="5">
          <mxGeometry width="50" height="50" relative="1" as="geometry" />
        </mxCell>
        <mxCell id="17" value="" style="endArrow=classic;html=1;exitX=1;exitY=0.5;entryX=0;exitY=0.5;" edge="1" parent="1" source="5" target="6">
          <mxGeometry width="50" height="50" relative="1" as="geometry" />
        </mxCell>
        <mxCell id="18" value="" style="endArrow=classic;html=1;exitX=1;exitY=0.5;entryX=0;exitY=0.5;" edge="1" parent="1" source="5" target="7">
          <mxGeometry width="50" height="50" relative="1" as="geometry" />
        </mxCell>
        <mxCell id="19" value="" style="endArrow=classic;html=1;exitX=1;exitY=0.5;entryX=0;exitY=0.5;" edge="1" parent="1" source="6" target="8">
          <mxGeometry width="50" height="50" relative="1" as="geometry" />
        </mxCell>
        <mxCell id="20" value="" style="endArrow=classic;html=1;exitX=1;exitY=0.5;entryX=0;exitY=0.5;" edge="1" parent="1" source="6" target="9">
          <mxGeometry width="50" height="50" relative="1" as="geometry" />
        </mxCell>
        <mxCell id="21" value="" style="endArrow=classic;html=1;exitX=1;exitY=0.5;entryX=0;exitY=0.5;" edge="1" parent="1" source="7" target="9">
          <mxGeometry width="50" height="50" relative="1" as="geometry" />
        </mxCell>
        <mxCell id="22" value="" style="endArrow=classic;html=1;exitX=1;exitY=0.5;entryX=0;exitY=0.5;" edge="1" parent="1" source="7" target="10">
          <mxGeometry width="50" height="50" relative="1" as="geometry" />
        </mxCell>
        <mxCell id="23" value="" style="endArrow=classic;html=1;exitX=0.5;exitY=1;entryX=0.5;exitY=0;" edge="1" parent="1" source="11" target="5">
          <mxGeometry width="50" height="50" relative="1" as="geometry" />
        </mxCell>
        <mxCell id="24" value="" style="endArrow=classic;html=1;exitX=0.5;exitY=0;entryX=0.5;exitY=1;" edge="1" parent="1" source="12" target="5">
          <mxGeometry width="50" height="50" relative="1" as="geometry" />
        </mxCell>
        
        <!-- Labels -->
        <mxCell id="25" value="HTTP/REST" style="text;html=1;strokeColor=none;fillColor=none;align=center;verticalAlign=middle;whiteSpace=wrap;rounded=0;" vertex="1" parent="1">
          <mxGeometry x="290" y="230" width="60" height="20" as="geometry" />
        </mxCell>
        <mxCell id="26" value="Batch Processing" style="text;html=1;strokeColor=none;fillColor=none;align=center;verticalAlign=middle;whiteSpace=wrap;rounded=0;" vertex="1" parent="1">
          <mxGeometry x="490" y="140" width="60" height="20" as="geometry" />
        </mxCell>
        <mxCell id="27" value="Stream Processing" style="text;html=1;strokeColor=none;fillColor=none;align=center;verticalAlign=middle;whiteSpace=wrap;rounded=0;" vertex="1" parent="1">
          <mxGeometry x="490" y="300" width="60" height="20" as="geometry" />
        </mxCell>
      </root>
    </mxGraphModel>
  </diagram>
</mxfile>
